<svg width="36" height="39" viewBox="0 0 36 39" fill="none" xmlns="http://www.w3.org/2000/svg">
<path d="M15.1 1.06401C15.9115 0.380058 16.9387 0.00494385 18 0.00494385C19.0613 0.00494385 20.0885 0.380058 20.9 1.06401L34.4 12.448C35.414 13.304 36 14.562 36 15.888V35.494C36 36.4223 35.6312 37.3125 34.9749 37.9689C34.3185 38.6253 33.4283 38.994 32.5 38.994H25.5C24.5717 38.994 23.6815 38.6253 23.0251 37.9689C22.3687 37.3125 22 36.4223 22 35.494V24.494C22 24.3614 21.9473 24.2342 21.8536 24.1405C21.7598 24.0467 21.6326 23.994 21.5 23.994H14.5C14.3674 23.994 14.2402 24.0467 14.1464 24.1405C14.0527 24.2342 14 24.3614 14 24.494V35.494C14 36.4223 13.6313 37.3125 12.9749 37.9689C12.3185 38.6253 11.4283 38.994 10.5 38.994H3.5C3.04037 38.994 2.58525 38.9035 2.16061 38.7276C1.73597 38.5517 1.35013 38.2939 1.02513 37.9689C0.700121 37.6439 0.442313 37.2581 0.266422 36.8334C0.0905303 36.4088 0 35.9536 0 35.494V15.888C0 14.562 0.586 13.304 1.6 12.448L15.1 1.06401ZM18.966 3.35801C18.6956 3.13038 18.3535 3.00555 18 3.00555C17.6465 3.00555 17.3044 3.13038 17.034 3.35801L3.534 14.74C3.36694 14.8806 3.2326 15.0561 3.14036 15.254C3.04813 15.4519 3.00022 15.6676 3 15.886V35.492C3 35.768 3.224 35.992 3.5 35.992H10.5C10.6326 35.992 10.7598 35.9393 10.8536 35.8456C10.9473 35.7518 11 35.6246 11 35.492V24.492C11 22.558 12.568 20.992 14.5 20.992H21.5C23.432 20.992 25 22.558 25 24.492V35.492C25 35.768 25.224 35.992 25.5 35.992H32.5C32.6326 35.992 32.7598 35.9393 32.8536 35.8456C32.9473 35.7518 33 35.6246 33 35.492V15.888C32.9998 15.6696 32.9519 15.4539 32.8596 15.256C32.7674 15.0581 32.6331 14.8826 32.466 14.742L18.966 3.35801Z" fill="#B3B3B3"/>
</svg>
