<svg width="36" height="39" viewBox="0 0 36 39" fill="none" xmlns="http://www.w3.org/2000/svg">
<path d="M15.1 1.06395C15.9115 0.379997 16.9387 0.00488281 18 0.00488281C19.0613 0.00488281 20.0885 0.379997 20.9 1.06395L34.4 12.448C35.414 13.304 36 14.562 36 15.888V35.494C36 36.4222 35.6312 37.3125 34.9749 37.9688C34.3185 38.6252 33.4283 38.994 32.5 38.994H25.5C24.5717 38.994 23.6815 38.6252 23.0251 37.9688C22.3687 37.3125 22 36.4222 22 35.494V24.494C22 24.3613 21.9473 24.2342 21.8536 24.1404C21.7598 24.0466 21.6326 23.994 21.5 23.994H14.5C14.3674 23.994 14.2402 24.0466 14.1464 24.1404C14.0527 24.2342 14 24.3613 14 24.494V35.494C14 36.4222 13.6313 37.3125 12.9749 37.9688C12.3185 38.6252 11.4283 38.994 10.5 38.994H3.5C3.04037 38.994 2.58525 38.9034 2.16061 38.7275C1.73597 38.5516 1.35013 38.2938 1.02513 37.9688C0.700121 37.6438 0.442313 37.258 0.266422 36.8334C0.0905303 36.4087 0 35.9536 0 35.494V15.888C0 14.562 0.586 13.304 1.6 12.448L15.1 1.06395ZM18.966 3.35795C18.6956 3.13032 18.3535 3.00549 18 3.00549C17.6465 3.00549 17.3044 3.13032 17.034 3.35795L3.534 14.74C3.36694 14.8806 3.2326 15.056 3.14036 15.2539C3.04813 15.4519 3.00022 15.6676 3 15.886V35.492C3 35.768 3.224 35.992 3.5 35.992H10.5C10.6326 35.992 10.7598 35.9393 10.8536 35.8455C10.9473 35.7517 11 35.6246 11 35.492V24.492C11 22.558 12.568 20.992 14.5 20.992H21.5C23.432 20.992 25 22.558 25 24.492V35.492C25 35.768 25.224 35.992 25.5 35.992H32.5C32.6326 35.992 32.7598 35.9393 32.8536 35.8455C32.9473 35.7517 33 35.6246 33 35.492V15.888C32.9998 15.6696 32.9519 15.4539 32.8596 15.2559C32.7674 15.058 32.6331 14.8826 32.466 14.742L18.966 3.35795Z" fill="white"/>
</svg>
