<svg width="53" height="53" viewBox="0 0 53 53" fill="none" xmlns="http://www.w3.org/2000/svg">
<rect width="53" height="53" rx="4" fill="#5483EA"/>
<g clip-path="url(#clip0_423_4944)">
<path d="M35.7503 20.3334H34.2087V17.2501C34.2087 12.9951 30.7553 9.54175 26.5003 9.54175C22.2453 9.54175 18.792 12.9951 18.792 17.2501V20.3334H17.2503C15.5545 20.3334 14.167 21.7209 14.167 23.4167V38.8334C14.167 40.5292 15.5545 41.9167 17.2503 41.9167H35.7503C37.4462 41.9167 38.8337 40.5292 38.8337 38.8334V23.4167C38.8337 21.7209 37.4462 20.3334 35.7503 20.3334ZM26.5003 34.2084C24.8045 34.2084 23.417 32.8209 23.417 31.1251C23.417 29.4292 24.8045 28.0417 26.5003 28.0417C28.1962 28.0417 29.5837 29.4292 29.5837 31.1251C29.5837 32.8209 28.1962 34.2084 26.5003 34.2084ZM21.8753 20.3334V17.2501C21.8753 14.6909 23.9412 12.6251 26.5003 12.6251C29.0595 12.6251 31.1253 14.6909 31.1253 17.2501V20.3334H21.8753Z" fill="white"/>
</g>
<defs>
<clipPath id="clip0_423_4944">
<rect width="37" height="37" fill="white" transform="translate(8 8)"/>
</clipPath>
</defs>
</svg>
