<svg width="40" height="31" viewBox="0 0 40 31" fill="none" xmlns="http://www.w3.org/2000/svg">
<path d="M5.55227 9.212L7.29627 21H32.7683L34.5023 9.04L27.5163 15.08L20.0063 5.426L12.1883 15.048L5.55227 9.212ZM25.6283 6.138L25.4723 6.272L25.7543 6.3L28.0883 9.298L30.9623 6.814L31.2423 6.842L31.1183 6.678L35.9443 2.506C36.2528 2.23982 36.6352 2.07422 37.0404 2.03136C37.4456 1.98851 37.8543 2.07044 38.2116 2.2662C38.569 2.46195 38.858 2.76219 39.0401 3.12673C39.2221 3.49127 39.2885 3.90271 39.2303 4.306L36.2303 25H3.84427L0.798265 4.4C0.73776 3.99447 0.803355 3.58015 0.986166 3.21314C1.16898 2.84613 1.46017 2.54418 1.82031 2.34818C2.18044 2.15218 2.59212 2.0716 2.99957 2.11736C3.40703 2.16312 3.79058 2.333 4.09827 2.604L8.70027 6.654L8.60027 6.774L8.81827 6.758L11.7063 9.298L14.1303 6.312L14.3483 6.294L14.2283 6.19L18.4903 0.952C18.6801 0.71862 18.9202 0.531079 19.1926 0.403341C19.4649 0.275603 19.7626 0.210962 20.0635 0.214229C20.3643 0.217497 20.6605 0.28859 20.9301 0.422215C21.1996 0.555839 21.4355 0.748551 21.6203 0.986L25.6303 6.138H25.6283ZM4.00027 27H36.0003V29C36.0003 29.5304 35.7896 30.0391 35.4145 30.4142C35.0394 30.7893 34.5307 31 34.0003 31H6.00027C5.46983 31 4.96112 30.7893 4.58605 30.4142C4.21098 30.0391 4.00027 29.5304 4.00027 29V27Z" fill="#B3B3B3"/>
</svg>
