<svg width="30" height="30" viewBox="0 0 30 30" fill="none" xmlns="http://www.w3.org/2000/svg">
<path fill-rule="evenodd" clip-rule="evenodd" d="M24.0733 21.7683L29.414 27.0732L29.4141 27.0727C30.0729 27.7315 30.0729 28.7919 29.4141 29.4136C29.0854 29.7066 28.6824 29.8895 28.2436 29.8895C27.8049 29.8895 27.4019 29.7423 27.0732 29.4136L21.7683 24.0344C19.4276 25.9009 16.5006 26.8884 13.5366 26.8884C9.95271 26.8884 6.58553 25.4979 4.06173 22.9741C1.538 20.4505 0.147461 17.0849 0.147461 13.4993C0.147461 9.91535 1.53792 6.54818 4.06173 4.02437C6.58539 1.50064 9.95095 0.110107 13.5366 0.110107C17.1205 0.110107 20.4877 1.50057 23.0115 4.02437C27.8046 8.81779 28.2433 16.4261 24.0733 21.7683ZM20.6706 20.6334C22.5743 18.7313 23.6346 16.206 23.6346 13.4993C23.6346 10.7927 22.5728 8.26868 20.6706 6.36511C18.7686 4.4615 16.2432 3.40111 13.5365 3.40111C10.8654 3.40111 8.3045 4.46296 6.40235 6.36511C4.49874 8.26718 3.43835 10.7925 3.43835 13.4993C3.43835 16.1703 4.50021 18.7313 6.40235 20.6334C8.30442 22.537 10.8654 23.5974 13.5365 23.5974C16.2076 23.5974 18.7685 22.5355 20.6706 20.6334Z" fill="#B3B3B3"/>
</svg>
