<svg width="30" height="30" viewBox="0 0 30 30" fill="none" xmlns="http://www.w3.org/2000/svg">
<path fill-rule="evenodd" clip-rule="evenodd" d="M24.0733 21.7685L29.414 27.0734L29.4141 27.073C30.0729 27.7317 30.0729 28.7922 29.4141 29.4138C29.0854 29.7068 28.6824 29.8897 28.2436 29.8897C27.8049 29.8897 27.4019 29.7425 27.0732 29.4138L21.7683 24.0347C19.4276 25.9011 16.5006 26.8886 13.5366 26.8886C9.95271 26.8886 6.58553 25.4982 4.06173 22.9744C1.538 20.4507 0.147461 17.0852 0.147461 13.4995C0.147461 9.91559 1.53792 6.54842 4.06173 4.02462C6.58539 1.50089 9.95095 0.110352 13.5366 0.110352C17.1205 0.110352 20.4877 1.50081 23.0115 4.02462C27.8046 8.81803 28.2433 16.4263 24.0733 21.7685ZM20.6706 20.6336C22.5743 18.7316 23.6346 16.2062 23.6346 13.4995C23.6346 10.7929 22.5728 8.26892 20.6706 6.36535C18.7686 4.46174 16.2432 3.40135 13.5365 3.40135C10.8654 3.40135 8.3045 4.4632 6.40235 6.36535C4.49874 8.26742 3.43835 10.7928 3.43835 13.4995C3.43835 16.1706 4.50021 18.7315 6.40235 20.6336C8.30442 22.5373 10.8654 23.5976 13.5365 23.5976C16.2076 23.5976 18.7685 22.5358 20.6706 20.6336Z" fill="white"/>
</svg>
